<svg width="28" height="28" viewBox="0 0 28 28" fill="none" xmlns="http://www.w3.org/2000/svg">
<path d="M20.44 3.36H24.64V17.36H28V0H20.44V3.36Z" fill="url(#paint0_linear_29747_478)"/>
<path d="M20.44 3.36H24.64V17.36H28V0H20.44V3.36Z" fill="white"/>
<path d="M17.36 0H0V7.56H3.36V3.36H17.36V0Z" fill="url(#paint1_linear_29747_478)"/>
<path d="M17.36 0H0V7.56H3.36V3.36H17.36V0Z" fill="white"/>
<path d="M3.36 10.64H0V28H7.56V24.64H3.36V10.64Z" fill="url(#paint2_linear_29747_478)"/>
<path d="M3.36 10.64H0V28H7.56V24.64H3.36V10.64Z" fill="white"/>
<path d="M10.64 24.64V28H28V20.44H24.64V24.64H10.64Z" fill="url(#paint3_linear_29747_478)"/>
<path d="M10.64 24.64V28H28V20.44H24.64V24.64H10.64Z" fill="white"/>
<path d="M6.16 6.16H9.52L15.68 21.84H12.32L6.16 6.16Z" fill="url(#paint4_linear_29747_478)"/>
<path d="M6.16 6.16H9.52L15.68 21.84H12.32L6.16 6.16Z" fill="white"/>
<path d="M21.84 6.16H18.48L12.32 21.84H15.68L21.84 6.16Z" fill="url(#paint5_linear_29747_478)"/>
<path d="M21.84 6.16H18.48L12.32 21.84H15.68L21.84 6.16Z" fill="white"/>
<defs>
<linearGradient id="paint0_linear_29747_478" x1="0" y1="0" x2="28" y2="28" gradientUnits="userSpaceOnUse">
<stop stop-color="#FFBF12"/>
<stop offset="1" stop-color="#FF9000"/>
</linearGradient>
<linearGradient id="paint1_linear_29747_478" x1="0" y1="0" x2="28" y2="28" gradientUnits="userSpaceOnUse">
<stop stop-color="#FFBF12"/>
<stop offset="1" stop-color="#FF9000"/>
</linearGradient>
<linearGradient id="paint2_linear_29747_478" x1="0" y1="0" x2="28" y2="28" gradientUnits="userSpaceOnUse">
<stop stop-color="#FFBF12"/>
<stop offset="1" stop-color="#FF9000"/>
</linearGradient>
<linearGradient id="paint3_linear_29747_478" x1="0" y1="0" x2="28" y2="28" gradientUnits="userSpaceOnUse">
<stop stop-color="#FFBF12"/>
<stop offset="1" stop-color="#FF9000"/>
</linearGradient>
<linearGradient id="paint4_linear_29747_478" x1="0" y1="0" x2="28" y2="28" gradientUnits="userSpaceOnUse">
<stop stop-color="#FFBF12"/>
<stop offset="1" stop-color="#FF9000"/>
</linearGradient>
<linearGradient id="paint5_linear_29747_478" x1="0" y1="0" x2="28" y2="28" gradientUnits="userSpaceOnUse">
<stop stop-color="#FFBF12"/>
<stop offset="1" stop-color="#FF9000"/>
</linearGradient>
</defs>
</svg>
