<svg width="20" height="20" viewBox="0 0 20 20" fill="none" xmlns="http://www.w3.org/2000/svg">
    <g id="Icons/notification" clip-path="url(#clip0_29747_423)">
        <path id="Vector"
              d="M18.3533 16.0082H1.88477V14.3614H2.70819V8.62291C2.70819 4.51564 6.02661 1.18652 10.1191 1.18652C14.2115 1.18652 17.5299 4.51564 17.5299 8.62291V14.3614H18.3533V16.0082ZM4.35505 14.3614H15.883V8.62291C15.883 5.42553 13.3024 2.83338 10.1191 2.83338C6.93568 2.83338 4.35505 5.42553 4.35505 8.62291V14.3614ZM8.06048 16.8317H12.1776C12.1776 17.3776 11.9607 17.9012 11.5747 18.2873C11.1886 18.6733 10.665 18.8902 10.1191 18.8902C9.57308 18.8902 9.04948 18.6733 8.66342 18.2873C8.27736 17.9012 8.06048 17.3776 8.06048 16.8317Z"
              fill="#676D7C"/>
    </g>
    <defs>
        <clipPath id="clip0_29747_423">
            <rect width="20" height="20" fill="white"/>
        </clipPath>
    </defs>
</svg>
