<svg width="20" height="20" viewBox="0 0 20 20" fill="none" xmlns="http://www.w3.org/2000/svg">
<g clip-path="url(#clip0_29747_471)">
<path d="M10.0002 0.833374L17.9168 5.41671V14.5834L10.0002 19.1667L2.0835 14.5834V5.41671L10.0002 0.833374ZM10.0002 2.75921L3.75016 6.37754V13.6225L10.0002 17.2409L16.2502 13.6225V6.37754L10.0002 2.75921ZM10.0002 13.3334C9.11611 13.3334 8.26826 12.9822 7.64314 12.3571C7.01802 11.7319 6.66683 10.8841 6.66683 10C6.66683 9.11598 7.01802 8.26814 7.64314 7.64302C8.26826 7.0179 9.11611 6.66671 10.0002 6.66671C10.8842 6.66671 11.7321 7.0179 12.3572 7.64302C12.9823 8.26814 13.3335 9.11598 13.3335 10C13.3335 10.8841 12.9823 11.7319 12.3572 12.3571C11.7321 12.9822 10.8842 13.3334 10.0002 13.3334ZM10.0002 11.6667C10.4422 11.6667 10.8661 11.4911 11.1787 11.1786C11.4912 10.866 11.6668 10.4421 11.6668 10C11.6668 9.55801 11.4912 9.13409 11.1787 8.82153C10.8661 8.50897 10.4422 8.33337 10.0002 8.33337C9.55814 8.33337 9.13421 8.50897 8.82165 8.82153C8.50909 9.13409 8.3335 9.55801 8.3335 10C8.3335 10.4421 8.50909 10.866 8.82165 11.1786C9.13421 11.4911 9.55814 11.6667 10.0002 11.6667Z" fill="#676D7C"/>
</g>
<defs>
<clipPath id="clip0_29747_471">
<rect width="20" height="20" fill="white"/>
</clipPath>
</defs>
</svg>
