<svg width="20" height="20" viewBox="0 0 20 20" fill="none" xmlns="http://www.w3.org/2000/svg">
    <g clip-path="url(#clip0_30087_208)">
        <path fill-rule="evenodd" clip-rule="evenodd"
              d="M7.5 7.50004V8.33337H6.66667V12.5H13.3333V8.33337H12.5V7.50004C12.5 6.11933 11.3807 5.00004 10 5.00004C8.61929 5.00004 7.5 6.11933 7.5 7.50004ZM10 6.66671C9.53976 6.66671 9.16667 7.0398 9.16667 7.50004V8.33337H10.8333V7.50004C10.8333 7.0398 10.4602 6.66671 10 6.66671Z"
              fill="#676D7C"/>
        <path fill-rule="evenodd" clip-rule="evenodd"
              d="M10 0.833374L3.1525 2.35504C2.96745 2.39618 2.80195 2.49918 2.68332 2.64704C2.5647 2.79491 2.50003 2.9788 2.5 3.16837V11.4917C2.5002 12.3147 2.70353 13.1249 3.09196 13.8504C3.48038 14.576 4.04189 15.1944 4.72667 15.6509L10 19.1667L15.2733 15.6509C15.9582 15.1943 16.5198 14.5757 16.9082 13.85C17.2967 13.1244 17.4999 12.314 17.5 11.4909V3.16837C17.5 2.9788 17.4353 2.79491 17.3167 2.64704C17.198 2.49918 17.0326 2.39618 16.8475 2.35504L10 0.833374ZM4.16667 11.4909V3.83671L10 2.54171L15.8333 3.83671V11.4917C15.8332 12.0403 15.6977 12.5803 15.4388 13.064C15.1799 13.5476 14.8056 13.9599 14.3492 14.2642L10 17.1642L5.65083 14.2642C5.19429 13.9598 4.81996 13.5474 4.56105 13.0636C4.30215 12.5798 4.16668 12.0396 4.16667 11.4909Z"
              fill="#676D7C"/>
    </g>
    <defs>
        <clipPath id="clip0_30087_208">
            <rect width="20" height="20" fill="white"/>
        </clipPath>
    </defs>
</svg>
